# AST/ASF file generated using VICON BodyLanguage
# -----------------------------------------------
:version 1.10
:name VICON
:units
  mass 1.0
  length 0.45
  angle deg
:documentation
   .ast/.asf automatically generated from VICON data using
   VICON BodyBuilder and BodyLanguage model FoxedUp or BRILLIANT.MOD
:root
   order TX TY TZ RX RY RZ
   axis XYZ
   position 0 0 0  
   orientation 0 0 0 
:bonedata
  begin
     id 1 
     name lhipjoint
     direction 0.575328 -0.747301 0.332475 
     length 2.40933 
     axis 0 0 0  XYZ
  end
  begin
     id 2 
     name lfemur
     direction 0.34202 -0.939693 0  
     length 7.31453  
     axis 0 0 20  XYZ
    dof rx ry rz
    limits (-160.0 20.0)
           (-70.0 70.0)
           (-60.0 70.0)
  end
  begin
     id 3 
     name ltibia
     direction 0.34202 -0.939693 0   
     length 7.82185   
     axis 0 0 20   XYZ
    dof rx
    limits (-10.0 170.0)
  end
  begin
     id 4 
     name lfoot
     direction 0.0795993 -0.218697 0.972541   
     length 2.19173   
     axis -90 7.62852e-016 20   XYZ
    dof rx rz
    limits (-45.0 90.0)
           (-70.0 20.0)
  end
  begin
     id 5 
     name ltoes
     direction 1.53537e-011 -4.21894e-011 1   
     length 1.10023   
     axis -90 7.62852e-016 20   XYZ
    dof rx
    limits (-90.0 20.0)
  end
  begin
     id 6 
     name rhipjoint
     direction -0.513884 -0.783789 0.348708   
     length 2.29716  
     axis 0 0 0  XYZ 
  end
  begin
     id 7 
     name rfemur
     direction -0.34202 -0.939693 0   
     length 7.59573   
     axis 0 0 -20   XYZ
    dof rx ry rz
    limits (-160.0 20.0)
           (-70.0 70.0)
           (-70.0 60.0)
  end
  begin
     id 8 
     name rtibia
     direction -0.34202 -0.939693 0   
     length 7.66402   
     axis 0 0 -20   XYZ
    dof rx
    limits (-10.0 170.0)
 end
 begin
     id 9 
     name rfoot
     direction -0.137793 -0.378584 0.915253   
     length 2.27056  
     axis -90 -7.62852e-016 -20   XYZ
    dof rx rz
    limits (-45.0 90.0)
           (-20.0 70.0)
  end
  begin
     id 10 
     name rtoes
     direction -1.53493e-011 -4.22159e-011 1   
     length 1.11766   
     axis -90 -7.62852e-016 -20   XYZ
    dof rx
    limits (-90.0 20.0)
  end
  begin
     id 11 
     name lowerback
     direction -0.00732775 0.998356 -0.05685   
     length 2.16513   
     axis 0 0 0   XYZ
    dof rx ry rz
    limits (-20.0 45.0)
           (-30.0 30.0)
           (-30.0 30.0)
  end
  begin
     id 12 
     name upperback
     direction 0.0218081 0.999627 -0.0164647   
     length 2.16755   
     axis 0 0 0   XYZ
    dof rx ry rz
    limits (-20.0 45.0)
           (-30.0 30.0)
           (-30.0 30.0)
  end
  begin
     id 13 
     name thorax
     direction 0.02365 0.999661 0.0108914   
     length 2.16932   
     axis 0 0 0   XYZ
    dof rx ry rz
    limits (-20.0 45.0)
           (-30.0 30.0)
           (-30.0 30.0)
  end
  begin
     id 14 
     name lowerneck
     direction -0.0523929 0.978385 0.200044   
     length 1.63877   
     axis 0 0 0   XYZ
    dof rx ry rz
    limits (-20.0 45.0)
           (-30.0 30.0)
           (-30.0 30.0)
  end
  begin
     id 15 
     name upperneck
     direction 0.0448674 0.981321 -0.187074   
     length 1.69014   
     axis 0 0 0   XYZ
    dof rx ry rz
    limits (-20.0 45.0)
           (-30.0 30.0)
           (-30.0 30.0)
  end
  begin
     id 16
     name head
     direction 0.0199089 0.996118 -0.0857429  
     length 1.70094  
     axis 0 0 0   XYZ
    dof rx ry rz
    limits (-20.0 45.0)
           (-30.0 30.0)
           (-30.0 30.0)
  end
  begin
     id 17 
     name lclavicle
     direction 0.940366 0.30191 -0.156722  
     length 3.37521  
     axis 0 0 0   XYZ
    dof ry rz
    limits (-20.0 10.0)
           (0.0 20.0)
  end
  begin
     id 18 
     name lhumerus
     direction 1 -4.4897e-011 -1.7911e-027   
     length 5.25287   
     axis 180 -30 -90   XYZ
    dof rx ry rz
    limits (-60.0 90.0)
           (-90.0 90.0)
           (-90.0 90.0)
  end
  begin
     id 19
     name lradius
     direction 1 -4.48951e-011 1.04424e-027   
     length 3.51014   
     axis 180 -30 -90   XYZ
    dof rx
    limits (-10.0 170.0)
  end
  begin
     id 20
     name lwrist
     direction 1 -4.48997e-011 -9.5942e-028   
     length 1.75507   
     axis 8.48502e-016 90 90   XYZ
    dof ry
    limits (-180.0 0.0)
 end
  begin
     id 21 
     name lhand
     direction 1 -4.48831e-011 -1.90777e-027   
     length 0.706179   
     axis 1.22306e-015 90 90   XYZ
    dof rx rz
    limits (-90.0 90.0)
           (-45.0 45.0)
  end
  begin
     id 22 
     name lfingers
     direction 1 -4.49108e-011 -3.85244e-027   
     length 0.569339   
     axis 2.44611e-015 90 90   XYZ
    dof rx
    limits (0.0 90.0)
  end
  begin
     id 23
     name lthumb
     direction 0.707107 -6.34953e-011 0.707107   
     length 0.817461   
     axis -90 45 -1.62303e-014   XYZ
    dof rx rz
    limits (-45.0 45.0)
           (-45.0 45.0)
  end
  begin
     id 24 
     name rclavicle
     direction -0.905329 0.382405 -0.184787   
     length 3.30787  
     axis 0 0 0   XYZ 
    dof ry rz
    limits (-10.0 20.0)
           (-20.0 0.0)
  end
  begin
     id 25 
     name rhumerus
     direction -1 -4.48953e-011 -9.15316e-029  
     length 5.28721   
     axis 180 30 90   XYZ
    dof rx ry rz
    limits (-90.0 60.0)
           (-90.0 90.0)
           (-90.0 90.0)
  end
  begin
     id 26 
     name rradius
     direction -1 -4.48987e-011 9.37824e-028   
     length 3.50544   
     axis 180 30 90   XYZ
    dof rx
    limits (-10.0 170.0)
  end
  begin
     id 27 
     name rwrist
     direction -1 -4.48967e-011 -9.58414e-028   
     length 1.75272   
     axis 8.48502e-016 -90 -90   XYZ
    dof ry
    limits (-180.0 0.0)
  end
  begin
     id 28
     name rhand
     direction -1 -4.48904e-011 -1.91266e-027   
     length 0.884996   
     axis 1.22306e-015 -90 -90   XYZ
    dof rx rz
    limits (-90.0 90.0)
           (-45.0 45.0)
  end
  begin
     id 29
     name rfingers
     direction -1 -4.4909e-011 -3.85015e-027   
     length 0.713507   
     axis 2.44611e-015 -90 -90   XYZ
    dof rx
    limits (0.0 90.0)
  end
  begin
     id 30
     name rthumb
     direction -0.707107 -6.34853e-011 0.707107   
     length 1.02446   
     axis -90 -45 1.62303e-014   XYZ
    dof rx rz
    limits (-45.0 45.0)
           (-45.0 45.0)
  end
:hierarchy
  begin
    root lhipjoint rhipjoint lowerback
    lhipjoint lfemur
    lfemur ltibia
    ltibia lfoot
    lfoot ltoes
    rhipjoint rfemur
    rfemur rtibia
    rtibia rfoot
    rfoot rtoes
    lowerback upperback
    upperback thorax
    thorax lowerneck lclavicle rclavicle
    lowerneck upperneck
    upperneck head
    lclavicle lhumerus
    lhumerus lradius
    lradius lwrist
    lwrist lhand lthumb
    lhand lfingers
    rclavicle rhumerus
    rhumerus rradius
    rradius rwrist
    rwrist rhand rthumb
    rhand rfingers
  end

#!OML:ASF F:\twosubjects\two\Thursday\Session 1\justin.ASF
:FULLY-SPECIFIED
:DEGREES
205
root 9.71641 18.1756 11.2058 -168.153 5.00125 -180.359
lowerback 3.20904 0.669157 -10.3536
upperback 2.89322 1.29193 9.32691
thorax 0.88974 0.68057 16.3176
lowerneck -25.0421 -6.57845 -15.8288
upperneck 26.8406 -3.27427 3.37855
head 13.7241 -2.37775 3.38009
rclavicle 7.95139e-016 -9.06458e-014
rhumerus -24.8533 -4.71541 -73.1951
rradius 26.2129
rwrist -6.88262
rhand -17.476 9.59871
rfingers 7.12502
rthumb 8.77606 -20.1988
lclavicle 7.95139e-016 -9.06458e-014
lhumerus -31.235 2.73514 101.45
lradius 29.603
lwrist -6.21194
lhand -1.25404 38.1008
lfingers 7.12502
lthumb 24.3887 66.5687
rfemur -37.9616 -5.53312 21.2294
rtibia 45.5172
rfoot -22.581 -2.3156
rtoes -14.5037
lfemur -9.3102 6.35763 -24.0822
ltibia 18.0515
lfoot -17.1183 0.997436
ltoes -6.82521
206
root 9.7296 18.1495 11.217 -168.433 4.50983 -180.148
lowerback 3.68088 0.649326 -9.93028
upperback 2.96438 1.27365 9.38131
thorax 0.709592 0.700392 16.1019
lowerneck -25.0897 -6.61712 -15.4756
upperneck 26.8682 -3.39036 3.15088
head 13.7436 -2.42408 3.208
rclavicle 3.18055e-014 1.09729e-013
rhumerus -25.0602 -5.45784 -72.929
rradius 26.5599
rwrist -6.80116
rhand -16.9178 10.3159
rfingers 7.12502
rthumb 9.31463 -19.4584
lclavicle 3.18055e-014 1.09729e-013
lhumerus -31.3804 2.38304 101.519
lradius 29.4486
lwrist -6.31006
lhand -1.54204 38.389
lfingers 7.12502
lthumb 24.1126 66.8938
rfemur -37.3713 -6.25105 21.6287
rtibia 46.0494
rfoot -21.9452 -4.7437
rtoes -21.3157
lfemur -9.13255 5.89553 -23.6748
ltibia 18.2861
lfoot -17.1916 1.00063
ltoes -6.77667
207
root 9.74409 18.177 11.2186 -168.398 4.2858 -179.903
lowerback 3.6651 0.620526 -9.62241
upperback 2.95473 1.26874 9.48861
thorax 0.711462 0.712618 16.0345
lowerneck -24.9661 -6.66186 -15.3001
upperneck 26.8622 -3.50184 3.02274
head 13.7211 -2.47024 3.10738
rclavicle -7.15625e-015 0
rhumerus -25.2795 -5.76093 -72.72
rradius 26.9955
rwrist -6.54716
rhand -16.6711 9.76582
rfingers 7.12502
rthumb 9.55268 -19.9976
lclavicle -7.15625e-015 0
lhumerus -31.5673 2.22323 101.604
lradius 29.2299
lwrist -6.56018
lhand -0.984673 39.1135
lfingers 7.12502
lthumb 24.6469 67.5464
rfemur -37.116 -5.85781 21.268
rtibia 46.6081
rfoot -21.6551 -5.13431
rtoes -15.8765
lfemur -9.37076 6.083 -23.3185
ltibia 18.6113
lfoot -17.3361 0.775711
ltoes -7.60618
208
root 9.76407 18.1749 11.2218 -168.396 4.1165 -179.994
lowerback 3.64055 0.573346 -9.71026
upperback 2.97625 1.21194 9.54291
thorax 0.76794 0.679218 16.1633
lowerneck -24.7991 -6.67736 -15.5844
upperneck 26.6948 -3.52966 3.26349
head 13.6322 -2.47488 3.24345
rclavicle -1.59028e-015 6.36111e-015
rhumerus -25.2271 -5.84982 -72.5997
rradius 27.2803
rwrist -6.60112
rhand -16.8432 8.81599
rfingers 7.12502
rthumb 9.38666 -20.955
lclavicle -1.59028e-015 6.36111e-015
lhumerus -31.5517 2.44157 101.65
lradius 28.8549
lwrist -6.93997
lhand 0.871258 41.1579
lfingers 7.12502
lthumb 26.4246 69.3361
rfemur -36.7564 -5.7278 20.7304
rtibia 47.1189
rfoot -21.4759 -6.01856
rtoes -11.2659
lfemur -9.67388 6.59012 -23.3215
ltibia 19.0578
lfoot -17.4199 0.278293
ltoes -9.13623
209
root 9.79138 18.1595 11.2333 -168.208 4.00737 -180.162
lowerback 3.50071 0.641884 -9.74394
upperback 3.03695 1.29998 9.44862
thorax 0.882057 0.707311 16.0678
lowerneck -25.1267 -6.80283 -15.7199
upperneck 26.6453 -3.70492 3.5239
head 13.7032 -2.535 3.32993
rclavicle 2.62396e-014 1.92424e-013
rhumerus -24.8459 -6.69645 -72.5067
rradius 27.1732
rwrist -6.42394
rhand -16.8255 8.9566
rfingers 7.12502
rthumb 9.40369 -20.8136
lclavicle 2.62396e-014 1.92424e-013
lhumerus -31.2432 2.50242 101.535
lradius 28.4528
lwrist -7.42416
lhand -0.803779 39.2739
lfingers 7.12502
lthumb 24.8203 67.683
rfemur -36.6385 -5.46829 20.2125
rtibia 47.658
rfoot -21.352 -7.02144
rtoes -7.6713
lfemur -10.0808 6.81314 -23.4079
ltibia 19.3703
lfoot -17.4055 -0.0101598
ltoes -10.169
210
root 9.8233 18.1585 11.2398 -167.677 4.08538 -180.061
lowerback 2.9941 0.711968 -9.63225
upperback 2.98984 1.42179 9.43579
thorax 1.07586 0.756828 15.9833
lowerneck -25.5884 -6.87425 -15.6101
upperneck 26.8357 -3.74536 3.46074
head 13.8767 -2.55752 3.27643
rclavicle 5.56597e-015 -1.27222e-014
rhumerus -24.6558 -7.19835 -72.4073
rradius 27.1313
rwrist -6.04743
rhand -16.67 9.28687
rfingers 7.12502
rthumb 9.55379 -20.4765
lclavicle 5.56597e-015 -1.27222e-014
lhumerus -31.0931 2.50694 101.433
lradius 28.2194
lwrist -7.74531
lhand 0.0441254 39.3908
lfingers 7.12502
lthumb 25.6326 67.6854
rfemur -36.962 -4.93524 20.0045
rtibia 48.1305
rfoot -21.0706 -8.16979
rtoes -7.33004
lfemur -10.8605 6.94766 -23.2706
ltibia 19.7815
lfoot -17.5691 -0.0253832
ltoes -10.6494
211
root 9.8564 18.1575 11.2422 -166.917 4.24436 -179.916
lowerback 2.15729 0.863195 -9.60966
upperback 2.84316 1.66096 9.40281
thorax 1.30852 0.863299 15.9368
lowerneck -25.6745 -6.9424 -15.2889
upperneck 26.9213 -3.91284 3.31965
head 13.9352 -2.61874 3.13436
rclavicle -8.74653e-015 4.45278e-014
rhumerus -24.765 -7.48106 -72.3299
rradius 27.3142
rwrist -5.99842
rhand -16.651 9.33186
rfingers 7.12502
rthumb 9.57209 -20.4307
lclavicle -8.74653e-015 4.45278e-014
lhumerus -31.1143 2.05163 101.399
lradius 28.1373
lwrist -7.72292
lhand -1.63557 40.0411
lfingers 7.12502
lthumb 24.0229 68.5578
rfemur -37.4814 -4.3896 19.8005
rtibia 48.5328
rfoot -20.7478 -9.03115
rtoes -8.34951
lfemur -11.7591 7.08897 -23.1416
ltibia 19.8974
lfoot -17.3338 -0.0385704
ltoes -11.4446
